HIERARCHY
ROOT root
{
	OFFSET	0	13.1	24.9
	CHANNELS 6  Xposition Yposition Zposition Xrotation Yrotation Zrotation
	JOINT spine_1
	{
		OFFSET	0	9.99999	0
		CHANNELS 3  Xrotation Yrotation Zrotation
		JOINT spine_2
		{
			OFFSET	0	112	-10
			CHANNELS 3  Xrotation Yrotation Zrotation
			JOINT spine_3
			{
				OFFSET	0	206.5	19.3
				CHANNELS 3  Xrotation Yrotation Zrotation
				JOINT spine_4
				{
					OFFSET	0	110.4	14.6
					CHANNELS 3  Xrotation Yrotation Zrotation
					JOINT neck_1
					{
						OFFSET	0	71.8	-50.3
						CHANNELS 3  Xrotation Yrotation Zrotation
						JOINT neck_2
						{
							OFFSET	0	86.2	-25.8
							CHANNELS 3  Xrotation Yrotation Zrotation
							JOINT head_ee
							{
								OFFSET	0	179.8	-8.7
								CHANNELS 3  Xrotation Yrotation Zrotation
								End Site
								{
									OFFSET	1	0	0
								}
							}
						}
					}
					JOINT left_clavicle
					{
						OFFSET	-43.2	22.4	-70.8
						CHANNELS 3  Xrotation Yrotation Zrotation
						JOINT left_shoulder
						{
							OFFSET	-93.9	-5.79999	48.7
							CHANNELS 3  Xrotation Yrotation Zrotation
							JOINT left_elbow
							{
								OFFSET	-291.4	-30.8	15.2
								CHANNELS 3  Xrotation Yrotation Zrotation
								JOINT left_lowarm_twist
								{
									OFFSET	-110.7	-3.89999	13.6
									CHANNELS 3  Xrotation Yrotation Zrotation
									JOINT left_hand
									{
										OFFSET	-110.7	-3.89999	13.6
										CHANNELS 3  Xrotation Yrotation Zrotation
										JOINT left_ee
										{
											OFFSET	-80.8	-5.10001	12.1
											CHANNELS 3  Xrotation Yrotation Zrotation
											End Site
											{
												OFFSET	1	0	0
											}
										}
									}
								}
							}
						}
					}
					JOINT right_clavicle
					{
						OFFSET	43.2	22.4	-70.8
						CHANNELS 3  Xrotation Yrotation Zrotation
						JOINT right_shoulder
						{
							OFFSET	93.9	-5.79999	48.7
							CHANNELS 3  Xrotation Yrotation Zrotation
							JOINT right_elbow
							{
								OFFSET	291.4	-30.8	15.2
								CHANNELS 3  Xrotation Yrotation Zrotation
								JOINT right_lowarm_twist
								{
									OFFSET	110.7	-3.89999	13.6
									CHANNELS 3  Xrotation Yrotation Zrotation
									JOINT right_hand
									{
										OFFSET	110.7	-3.89999	13.6
										CHANNELS 3  Xrotation Yrotation Zrotation
										JOINT right_ee
										{
											OFFSET	80.8	-5.10001	12.1
											CHANNELS 3  Xrotation Yrotation Zrotation
											End Site
											{
												OFFSET	1	0	0
											}
										}
									}
								}
							}
						}
					}
				}
			}
		}
	}
	JOINT left_hip
	{
		OFFSET	-82.8	-127.5	0.300001
		CHANNELS 3  Xrotation Yrotation Zrotation
		JOINT left_knee
		{
			OFFSET	-28.2	-396.7	2.2
			CHANNELS 3  Xrotation Yrotation Zrotation
			JOINT left_ankle
			{
				OFFSET	-11.7	-411.3	35.4
				CHANNELS 3  Xrotation Yrotation Zrotation
				JOINT left_toes
				{
					OFFSET	0	-60	-88.6
					CHANNELS 3  Xrotation Yrotation Zrotation
					JOINT left_foot_ee
					{
						OFFSET	-22.5	-16.5	-42.2
						CHANNELS 3  Xrotation Yrotation Zrotation
						End Site
						{
							OFFSET	1	0	0
						}
					}
				}
			}
		}
	}
	JOINT right_hip
	{
		OFFSET	82.8	-127.5	0.300001
		CHANNELS 3  Xrotation Yrotation Zrotation
		JOINT right_knee
		{
			OFFSET	28.2	-396.7	2.2
			CHANNELS 3  Xrotation Yrotation Zrotation
			JOINT right_ankle
			{
				OFFSET	11.7	-411.3	35.4
				CHANNELS 3  Xrotation Yrotation Zrotation
				JOINT right_toes
				{
					OFFSET	0	-60	-88.6
					CHANNELS 3  Xrotation Yrotation Zrotation
					JOINT right_foot_ee
					{
						OFFSET	22.5	-16.5	-42.2
						CHANNELS 3  Xrotation Yrotation Zrotation
						End Site
						{
							OFFSET	1	0	0
						}
					}
				}
			}
		}
	}
}
MOTION
Frames: 8
Frame Time: 0.02
1677.88 704.521 -523.021 -2.14153 -89.368 -0.0280187 0.537378 -0.364362 -1.04193 0.537933 -0.297326 -1.063 0.543763 -0.0777491 -1.10105 0.542159 -0.250654 -1.07496 -13.4309 3.01335 0.576694 -13.4497 5.38136 1.46748 -0.0 0.0 -0.0 8.16966 20.3277 14.5249 0.679094 -41.3023 64.0724 0.867061 -23.2441 0.178333 -5.4648 -0.224302 0.661315 -0.772439 23.2682 4.81827 -0.0 0.0 -0.0 7.42226 -7.96793 -14.2333 -8.71879 -14.7717 -67.4271 0.69442 18.983 -0.116102 -77.3773 7.48826 -5.30737 -3.91014 -0.205565 27.0358 0.0 0.0 0.0 3.79894 13.4439 -10.3318 -0.555934 0.022492 0.0823492 9.09621 4.6691 -1.29905 -12.1311 0.0 0.0 -0.0 0.0 -0.0 -0.228896 11.4663 -3.11871 -3.37974 -0.124325 -0.503709 26.1846 12.2829 3.66154 -1.12909 0.0 0.0 0.0 0.0 0.0 
1683.45 702.392 -522.314 -16.8511 -89.1999 -14.7288 0.684299 -0.435711 -1.04209 0.684828 -0.368521 -1.0677 0.692009 -0.149459 -1.11957 0.690406 -0.324389 -1.08193 -13.7344 2.86765 0.93328 -13.7491 4.8921 1.77533 -0.0 0.0 -0.0 8.34674 20.4316 14.7868 1.30851 -41.8656 64.0724 0.920676 -24.5162 0.200039 -5.78624 -0.239451 0.699522 -0.847502 22.9673 4.26052 -0.0 0.0 -0.0 7.41115 -8.3612 -14.1958 -8.72225 -16.2093 -66.8345 0.567467 15.7012 -0.0782444 -77.3448 7.48412 -5.30761 -3.83096 -0.641208 26.2048 0.0 0.0 0.0 3.49566 13.9028 -10.2248 -0.0873802 0.00358819 0.0129292 10.2886 4.528 -1.46344 -12.0673 0.0 0.0 -0.0 0.0 -0.0 -0.0523084 12.0679 -3.20396 -3.935 -0.141897 -0.587114 26.9434 12.2629 3.75005 -1.16347 0.0 0.0 0.0 0.0 0.0 
1690.02 701.298 -522.38 -18.2828 -89.1515 -16.2276 0.762214 -0.456045 -1.00689 0.762694 -0.391054 -1.03386 0.770041 -0.179745 -1.09063 0.768551 -0.349725 -1.04856 -13.8536 2.75774 1.14245 -13.865 4.55789 1.94471 -0.0 0.0 -0.0 8.47637 20.3284 15.001 2.2863 -42.3368 64.1274 0.972086 -25.7123 0.22186 -6.00423 -0.249847 0.725386 -0.864655 22.2443 3.85878 -0.0 0.0 -0.0 7.21074 -8.65262 -13.8171 -8.86278 -17.966 -66.107 0.470437 13.1183 -0.054092 -77.1275 7.45642 -5.30919 -3.88386 -1.12187 26.3365 0.0 0.0 0.0 3.29288 14.2175 -10.0723 0.211719 -0.00877582 -0.0313047 10.1583 4.39038 -1.44578 -12.0481 0.0 0.0 -0.0 0.0 -0.0 -0.00591865 12.6428 -3.21459 -4.28931 -0.152686 -0.640419 27.397 12.3267 3.80409 -1.37486 0.0 0.0 0.0 0.0 0.0 
1694.44 700.847 -519.86 -32.7766 -89.2122 -30.7836 0.904201 -0.386472 -0.978568 0.904676 -0.323424 -1.00117 0.91056 -0.12243 -1.04497 0.90915 -0.285918 -1.01252 -13.796 2.2823 0.939092 -13.8037 3.77433 1.60127 -0.0 0.0 -0.0 8.51589 20.2401 15.0737 3.0373 -42.7114 64.0744 1.04876 -27.4522 0.256172 -6.22584 -0.260517 0.751638 -0.72475 21.6476 4.42717 -0.0 0.0 -0.0 7.12898 -9.88553 -13.6166 -9.77777 -19.651 -65.7033 0.267024 7.53528 -0.0175843 -76.6989 7.40177 -5.312 -4.41808 -3.84633 28.7963 0.0 0.0 0.0 3.20774 14.4137 -10.3616 0.473768 -0.0197985 -0.0700071 9.0046 3.30659 -1.28849 -11.2452 0.0 0.0 -0.0 0.0 -0.0 0.405567 14.1462 -3.20376 -4.57478 -0.161139 -0.683414 26.4288 11.5711 3.67513 -1.63624 0.0 0.0 0.0 0.0 0.0 
1702.56 698.359 -516.432 -61.2081 -89.2145 -59.3885 0.918553 -0.240008 -0.899662 0.918985 -0.182276 -0.91311 0.922049 -0.00128251 -0.931123 0.92087 -0.148314 -0.919237 -13.7877 1.62246 0.316852 -13.7934 2.8984 0.804643 -0.0 0.0 -0.0 8.53988 20.0825 15.1312 4.0348 -43.0954 64.0055 1.14739 -29.6122 0.303294 -6.43255 -0.270561 0.776089 -0.603065 20.0947 4.5071 -0.0 0.0 -0.0 7.09045 -11.1007 -13.4915 -11.157 -21.0802 -65.7308 0.185242 5.2431 -0.00848158 -76.4872 7.37475 -5.31323 -4.72855 -5.88338 29.9083 0.0 0.0 0.0 2.84624 14.5823 -10.4306 0.775449 -0.0327076 -0.114501 9.61724 1.64338 -1.37702 -9.83763 0.0 0.0 -0.0 0.0 -0.0 0.82913 15.9707 -3.50807 -4.62636 -0.162643 -0.691186 26.4501 11.2613 3.67123 -1.75578 0.0 0.0 0.0 0.0 0.0 
1708.84 698.04 -513.562 -23.2333 -87.0121 -21.4897 1.20251 -0.117956 -0.854008 1.20291 -0.0633762 -0.859782 1.20394 0.100783 -0.856204 1.20292 -0.0356983 -0.861375 -13.9107 1.53975 0.703458 -13.9139 2.5056 1.14911 -0.0 0.0 -0.0 8.5241 19.9601 15.122 3.43991 -43.1139 63.687 1.20806 -30.8967 0.333863 -6.19222 -0.258892 0.747657 -0.442751 19.3052 5.14409 -0.0 0.0 -0.0 7.1037 -9.67223 -13.5806 -13.092 -24.3649 -66.446 0.192319 5.44224 -0.00914054 -75.3752 7.2328 -5.31807 -5.07526 -8.77071 30.6643 0.0 0.0 0.0 2.69407 14.6833 -10.5717 1.58443 -0.0684807 -0.23348 8.97964 0.713715 -1.29109 -8.41837 0.0 0.0 -0.0 0.0 -0.0 0.963764 15.9079 -3.84262 -4.11797 -0.14751 -0.614633 26.8079 10.8496 3.70456 -2.03342 0.0 0.0 0.0 0.0 0.0 
1716.82 694.349 -509.666 -84.3191 -88.7194 -82.6744 1.36915 -0.118999 -0.81742 1.36952 -0.0667446 -0.823335 1.37053 0.0881764 -0.821316 1.36959 -0.0426372 -0.824935 -14.6633 1.58881 -0.159772 -14.6713 3.13177 0.365209 -0.0 0.0 -0.0 8.02707 19.8288 14.3603 3.96984 -44.0481 64.4341 1.26364 -32.044 0.362884 -6.82075 -0.289662 0.821909 -0.289338 17.3537 5.28891 -0.0 0.0 -0.0 7.13533 -10.4847 -13.6006 -13.1257 -26.2126 -66.0087 0.192906 5.45874 -0.00919633 -75.042 7.19024 -5.31898 -5.18671 -10.5453 30.2897 0.0 0.0 0.0 2.41502 14.7837 -10.6866 1.85519 -0.0808294 -0.27319 9.46165 -0.384559 -1.36164 -7.15567 0.0 0.0 -0.0 0.0 -0.0 1.19911 15.4541 -4.35046 -5.11342 -0.176504 -0.76465 27.0968 9.86548 3.71875 -1.12536 0.0 0.0 0.0 0.0 0.0 
1720.22 694.034 -507.278 -94.3207 -88.354 -92.8466 1.4775 0.0099758 -0.739299 1.4778 0.0569978 -0.737166 1.47708 0.192332 -0.713913 1.47637 0.0771723 -0.735327 -14.6174 0.778473 0.248318 -14.6187 1.33822 0.487303 -0.0 0.0 -0.0 8.04762 20.1678 14.3542 4.21541 -43.8828 64.2407 1.31672 -33.1133 0.391462 -7.07511 -0.302346 0.851862 -0.435282 18.3577 4.8062 -0.0 0.0 -0.0 7.19339 -8.98208 -13.7719 -13.4589 -28.055 -66.4554 0.190317 5.38593 -0.00895176 -74.5063 7.12179 -5.31991 -5.37663 -11.2223 31.2453 0.0 0.0 0.0 2.30123 14.1978 -10.6929 2.69115 -0.12014 -0.395425 9.83652 -0.569175 -1.41435 -7.36463 0.0 0.0 -0.0 0.0 -0.0 1.43983 15.7452 -4.66644 -4.47435 -0.15819 -0.668283 26.4675 9.84163 3.64558 -2.28641 0.0 0.0 0.0 0.0 0.0 
